<svg xmlns="http://www.w3.org/2000/svg" xmlns:xlink="http://www.w3.org/1999/xlink" width="100" zoomAndPan="magnify" viewBox="0 0 75 74.999997" height="100" preserveAspectRatio="xMidYMid meet" version="1.0"><defs><clipPath id="1e989fe6c2"><path d="M 5 20 L 57 20 L 57 70 L 5 70 Z M 5 20 " clip-rule="nonzero"/></clipPath><clipPath id="81b83d8785"><path d="M 3.953125 32.074219 L 62.957031 14.730469 L 76.492188 60.785156 L 17.488281 78.125 Z M 3.953125 32.074219 " clip-rule="nonzero"/></clipPath><clipPath id="10e212430f"><path d="M 3.953125 32.074219 L 62.957031 14.730469 L 76.492188 60.785156 L 17.488281 78.125 Z M 3.953125 32.074219 " clip-rule="nonzero"/></clipPath><clipPath id="67458b5a27"><path d="M 35 27 L 74 27 L 74 64 L 35 64 Z M 35 27 " clip-rule="nonzero"/></clipPath><clipPath id="6a5cdfe243"><path d="M 3.953125 32.074219 L 62.957031 14.730469 L 76.492188 60.785156 L 17.488281 78.125 Z M 3.953125 32.074219 " clip-rule="nonzero"/></clipPath><clipPath id="2c08934acf"><path d="M 3.953125 32.074219 L 62.957031 14.730469 L 76.492188 60.785156 L 17.488281 78.125 Z M 3.953125 32.074219 " clip-rule="nonzero"/></clipPath><clipPath id="6f2cb07e6c"><path d="M 29.527344 36.855469 L 66.640625 25.945312 L 76.890625 60.816406 L 39.777344 71.726562 Z M 29.527344 36.855469 " clip-rule="nonzero"/></clipPath><clipPath id="4ba0eb7a3c"><path d="M 29.527344 36.855469 L 66.632812 25.949219 L 76.875 60.804688 L 39.773438 71.710938 Z M 29.527344 36.855469 " clip-rule="nonzero"/></clipPath><clipPath id="f690e60552"><path d="M 14 32 L 45 32 L 45 43 L 14 43 Z M 14 32 " clip-rule="nonzero"/></clipPath><clipPath id="279b4741e6"><path d="M 3.953125 32.074219 L 62.957031 14.730469 L 76.492188 60.785156 L 17.488281 78.125 Z M 3.953125 32.074219 " clip-rule="nonzero"/></clipPath><clipPath id="1c517ada4d"><path d="M 3.953125 32.074219 L 62.957031 14.730469 L 76.492188 60.785156 L 17.488281 78.125 Z M 3.953125 32.074219 " clip-rule="nonzero"/></clipPath><clipPath id="6e69b5db9b"><path d="M 16 42 L 40 42 L 40 51 L 16 51 Z M 16 42 " clip-rule="nonzero"/></clipPath><clipPath id="fe3c4703ee"><path d="M 3.953125 32.074219 L 62.957031 14.730469 L 76.492188 60.785156 L 17.488281 78.125 Z M 3.953125 32.074219 " clip-rule="nonzero"/></clipPath><clipPath id="073cc2eed7"><path d="M 3.953125 32.074219 L 62.957031 14.730469 L 76.492188 60.785156 L 17.488281 78.125 Z M 3.953125 32.074219 " clip-rule="nonzero"/></clipPath></defs><g clip-path="url(#1e989fe6c2)"><g clip-path="url(#81b83d8785)"><g clip-path="url(#10e212430f)"><path fill="#ffffff" d="M 41.925781 20.914062 L 10.871094 30.042969 C 7.054688 31.164062 4.820312 35.03125 5.890625 38.667969 L 11.121094 56.464844 C 12.1875 60.097656 16.160156 62.144531 19.976562 61.023438 L 21.679688 60.519531 L 22.546875 64.121094 L 23.773438 69.207031 L 26.320312 64.636719 L 29.566406 58.808594 C 29.824219 58.34375 30.246094 58.003906 30.757812 57.851562 L 51.03125 51.894531 C 54.847656 50.773438 57.082031 46.902344 56.011719 43.269531 L 50.78125 25.472656 C 49.714844 21.835938 45.742188 19.792969 41.925781 20.914062 Z M 42.5 22.875 C 45.242188 22.070312 48.070312 23.488281 48.820312 26.046875 L 54.054688 43.84375 C 54.804688 46.402344 53.195312 49.128906 50.457031 49.933594 L 30.183594 55.894531 C 29.160156 56.195312 28.296875 56.882812 27.78125 57.8125 L 24.535156 63.640625 L 23.515625 59.410156 C 23.324219 58.617188 22.511719 58.148438 21.730469 58.378906 L 19.398438 59.0625 C 16.660156 59.867188 13.832031 58.445312 13.078125 55.886719 L 7.847656 38.089844 C 7.097656 35.53125 8.707031 32.804688 11.445312 32 L 42.5 22.875 " fill-opacity="1" fill-rule="nonzero"/></g></g></g><g clip-path="url(#67458b5a27)"><g clip-path="url(#6a5cdfe243)"><g clip-path="url(#2c08934acf)"><g clip-path="url(#6f2cb07e6c)"><g clip-path="url(#4ba0eb7a3c)"><path fill="#ffffff" d="M 69.707031 62.914062 L 62.296875 58.394531 C 61.6875 58.023438 61.007812 57.921875 60.371094 58.109375 L 42.898438 63.242188 C 40.050781 64.082031 37.027344 62.355469 36.15625 59.398438 L 35.820312 58.257812 C 35.675781 57.765625 35.960938 57.25 36.453125 57.101562 C 36.945312 56.957031 37.464844 57.242188 37.609375 57.734375 L 37.945312 58.875 C 38.523438 60.84375 40.511719 62.003906 42.375 61.457031 L 59.847656 56.320312 C 60.976562 55.988281 62.222656 56.164062 63.265625 56.804688 L 66.269531 58.636719 L 65.746094 57.101562 C 65.53125 56.476562 65.578125 55.796875 65.871094 55.234375 C 66.140625 54.714844 66.585938 54.339844 67.132812 54.179688 L 69.140625 53.589844 C 71.003906 53.039062 72.050781 50.992188 71.46875 49.019531 L 66.421875 31.839844 C 65.839844 29.867188 63.855469 28.710938 61.992188 29.257812 L 54.726562 31.394531 C 54.234375 31.539062 53.714844 31.257812 53.570312 30.761719 C 53.425781 30.269531 53.707031 29.75 54.199219 29.605469 L 61.464844 27.46875 C 64.3125 26.632812 67.339844 28.359375 68.207031 31.316406 L 73.257812 48.492188 C 74.128906 51.449219 72.515625 54.539062 69.667969 55.375 L 67.660156 55.964844 C 67.605469 55.980469 67.558594 56.023438 67.523438 56.089844 C 67.464844 56.203125 67.460938 56.355469 67.507812 56.5 L 69.707031 62.914062 " fill-opacity="1" fill-rule="nonzero"/></g></g></g></g></g><g clip-path="url(#f690e60552)"><g clip-path="url(#279b4741e6)"><g clip-path="url(#1c517ada4d)"><path fill="#ffffff" d="M 44.027344 33.90625 L 15.417969 42.316406 C 14.921875 42.460938 14.40625 42.175781 14.261719 41.683594 C 14.113281 41.191406 14.398438 40.671875 14.890625 40.527344 L 43.503906 32.117188 C 43.996094 31.972656 44.515625 32.253906 44.660156 32.75 C 44.804688 33.242188 44.523438 33.761719 44.027344 33.90625 " fill-opacity="1" fill-rule="nonzero"/></g></g></g><g clip-path="url(#6e69b5db9b)"><g clip-path="url(#fe3c4703ee)"><g clip-path="url(#073cc2eed7)"><path fill="#ffffff" d="M 38.621094 44.328125 L 17.792969 50.449219 C 17.296875 50.597656 16.78125 50.3125 16.636719 49.820312 C 16.492188 49.328125 16.773438 48.808594 17.265625 48.664062 L 38.097656 42.539062 C 38.589844 42.394531 39.109375 42.679688 39.253906 43.171875 C 39.398438 43.664062 39.117188 44.183594 38.621094 44.328125 " fill-opacity="1" fill-rule="nonzero"/></g></g></g></svg>