<svg xmlns="http://www.w3.org/2000/svg" xmlns:xlink="http://www.w3.org/1999/xlink" width="1080" zoomAndPan="magnify" viewBox="0 0 810 809.999993" height="1080" preserveAspectRatio="xMidYMid meet" version="1.0"><defs><clipPath id="9b8bd07743"><path d="M 115 75.34375 L 696.753906 75.34375 L 696.753906 734.59375 L 115 734.59375 Z M 115 75.34375 " clip-rule="nonzero"/></clipPath></defs><g clip-path="url(#9b8bd07743)"><path fill="#ffffff" d="M 343.589844 734.59375 C 339.84375 734.59375 336.296875 733.53125 333.289062 731.636719 L 289.746094 719.292969 C 284.425781 717.785156 280.113281 713.894531 278.0625 708.761719 L 237.425781 606.921875 C 234.414062 609.125 230.738281 610.382812 226.882812 610.382812 C 224.027344 610.382812 221.195312 609.6875 218.660156 608.371094 C 213.464844 605.675781 209.925781 600.59375 209.195312 594.785156 C 207.414062 580.566406 195.738281 568.90625 179.445312 565.082031 C 171.148438 563.132812 165.394531 555.574219 165.726562 547.054688 C 166.058594 538.539062 172.386719 531.453125 180.8125 530.15625 C 187.375 529.148438 193.96875 525.210938 197.21875 520.359375 C 198.402344 518.597656 199.457031 516.535156 200.402344 514.132812 L 116.542969 304.011719 C 113.328125 296.203125 116.007812 287.027344 123.167969 282.304688 C 123.316406 282.207031 178.835938 247.910156 178.835938 247.910156 C 173.96875 243.90625 167.941406 240.925781 161.261719 239.355469 C 152.964844 237.40625 147.214844 229.847656 147.546875 221.332031 C 147.878906 212.816406 154.203125 205.730469 162.628906 204.433594 C 169.195312 203.421875 175.789062 199.488281 179.039062 194.636719 C 183.171875 188.457031 185.082031 179.808594 186.484375 171.289062 C 187.308594 163.128906 193.648438 156.429688 201.910156 155.359375 C 201.980469 155.351562 202.054688 155.339844 202.125 155.332031 C 202.820312 155.25 203.527344 155.207031 204.242188 155.207031 C 204.382812 155.207031 204.527344 155.207031 204.671875 155.210938 C 213.128906 155.417969 220.214844 161.476562 221.75 169.667969 C 223.949219 177.996094 226.667969 186.398438 231.355469 192.148438 C 235.042969 196.660156 241.980469 199.957031 248.613281 200.34375 C 250.492188 200.453125 252.296875 200.851562 253.980469 201.5 L 453.917969 78 C 456.761719 76.246094 460.003906 75.34375 463.273438 75.34375 C 465.027344 75.34375 466.785156 75.601562 468.496094 76.125 C 473.398438 77.628906 477.414062 81.175781 479.515625 85.851562 L 490.996094 111.410156 C 506.707031 106.238281 523.074219 103.621094 539.855469 103.621094 C 626.292969 103.621094 696.613281 173.9375 696.613281 260.363281 C 696.613281 311.710938 671.6875 359.117188 630.433594 388.289062 C 632.332031 394.324219 634.714844 400.007812 638.179688 404.25 C 641.859375 408.757812 648.796875 412.054688 655.429688 412.4375 C 663.9375 412.9375 670.90625 419.390625 672.039062 427.839844 C 673.175781 436.289062 668.164062 444.351562 660.085938 447.082031 C 654.652344 448.910156 649.675781 451.75 645.53125 455.328125 L 687.371094 592.96875 C 690.125 602.039062 685.296875 611.675781 676.378906 614.890625 L 354.960938 730.871094 C 353.660156 731.828125 352.230469 732.621094 350.703125 733.230469 C 348.460938 734.128906 346.050781 734.59375 343.589844 734.59375 Z M 343.589844 734.59375 " fill-opacity="1" fill-rule="nonzero"/></g><path fill="#fea8fe" d="M 679.207031 261.988281 C 679.207031 264.261719 679.152344 266.535156 679.039062 268.808594 C 678.929688 271.078125 678.761719 273.34375 678.539062 275.609375 C 678.316406 277.871094 678.035156 280.125 677.703125 282.375 C 677.371094 284.625 676.980469 286.863281 676.535156 289.09375 C 676.09375 291.324219 675.59375 293.542969 675.042969 295.75 C 674.488281 297.953125 673.882812 300.144531 673.222656 302.320312 C 672.5625 304.496094 671.851562 306.65625 671.085938 308.796875 C 670.316406 310.9375 669.5 313.058594 668.628906 315.160156 C 667.757812 317.257812 666.839844 319.335938 665.867188 321.394531 C 664.894531 323.449219 663.871094 325.480469 662.800781 327.484375 C 661.726562 329.488281 660.605469 331.46875 659.4375 333.417969 C 658.269531 335.367188 657.050781 337.289062 655.789062 339.179688 C 654.527344 341.070312 653.214844 342.929688 651.863281 344.753906 C 650.507812 346.582031 649.109375 348.375 647.664062 350.128906 C 646.222656 351.886719 644.738281 353.609375 643.210938 355.292969 C 641.683594 356.980469 640.117188 358.625 638.507812 360.234375 C 636.898438 361.839844 635.253906 363.410156 633.570312 364.9375 C 631.882812 366.460938 630.164062 367.949219 628.40625 369.390625 C 626.648438 370.832031 624.855469 372.230469 623.027344 373.585938 C 621.203125 374.941406 619.34375 376.25 617.453125 377.511719 C 615.5625 378.777344 613.640625 379.992188 611.691406 381.160156 C 609.738281 382.328125 607.761719 383.449219 605.753906 384.523438 C 603.75 385.59375 601.71875 386.617188 599.664062 387.589844 C 597.609375 388.558594 595.53125 389.480469 593.429688 390.351562 C 591.328125 391.222656 589.207031 392.039062 587.066406 392.804688 C 584.925781 393.570312 582.765625 394.285156 580.589844 394.945312 C 578.414062 395.605469 576.222656 396.210938 574.015625 396.765625 C 571.808594 397.316406 569.59375 397.8125 567.363281 398.257812 C 565.132812 398.703125 562.890625 399.089844 560.640625 399.421875 C 558.394531 399.757812 556.136719 400.035156 553.875 400.257812 C 551.609375 400.480469 549.34375 400.648438 547.070312 400.761719 C 544.800781 400.871094 542.527344 400.925781 540.253906 400.925781 C 537.980469 400.925781 535.707031 400.871094 533.433594 400.761719 C 531.164062 400.648438 528.898438 400.480469 526.632812 400.257812 C 524.371094 400.035156 522.113281 399.757812 519.863281 399.421875 C 517.617188 399.089844 515.375 398.703125 513.144531 398.257812 C 510.914062 397.8125 508.695312 397.316406 506.492188 396.765625 C 504.285156 396.210938 502.09375 395.605469 499.917969 394.945312 C 497.742188 394.285156 495.582031 393.570312 493.441406 392.804688 C 491.300781 392.039062 489.179688 391.222656 487.078125 390.351562 C 484.976562 389.480469 482.898438 388.558594 480.84375 387.589844 C 478.789062 386.617188 476.757812 385.59375 474.75 384.523438 C 472.746094 383.449219 470.769531 382.328125 468.816406 381.160156 C 466.867188 379.992188 464.945312 378.777344 463.054688 377.511719 C 461.164062 376.25 459.304688 374.941406 457.480469 373.585938 C 455.652344 372.230469 453.859375 370.832031 452.101562 369.390625 C 450.34375 367.949219 448.625 366.460938 446.9375 364.9375 C 445.253906 363.410156 443.605469 361.839844 442 360.234375 C 440.390625 358.625 438.824219 356.980469 437.296875 355.292969 C 435.769531 353.609375 434.285156 351.886719 432.839844 350.128906 C 431.398438 348.375 430 346.582031 428.644531 344.753906 C 427.289062 342.929688 425.980469 341.070312 424.71875 339.179688 C 423.453125 337.289062 422.238281 335.367188 421.070312 333.417969 C 419.898438 331.46875 418.78125 329.488281 417.707031 327.484375 C 416.636719 325.480469 415.613281 323.449219 414.640625 321.394531 C 413.667969 319.335938 412.746094 317.257812 411.878906 315.160156 C 411.007812 313.058594 410.1875 310.9375 409.421875 308.796875 C 408.65625 306.65625 407.945312 304.496094 407.285156 302.320312 C 406.625 300.144531 406.015625 297.953125 405.464844 295.75 C 404.910156 293.542969 404.414062 291.324219 403.96875 289.09375 C 403.527344 286.863281 403.136719 284.625 402.804688 282.375 C 402.46875 280.125 402.191406 277.871094 401.96875 275.609375 C 401.746094 273.34375 401.578125 271.078125 401.46875 268.808594 C 401.355469 266.535156 401.300781 264.261719 401.300781 261.988281 C 401.300781 259.714844 401.355469 257.441406 401.46875 255.171875 C 401.578125 252.902344 401.746094 250.632812 401.96875 248.371094 C 402.191406 246.109375 402.46875 243.851562 402.804688 241.601562 C 403.136719 239.355469 403.527344 237.113281 403.96875 234.882812 C 404.414062 232.652344 404.910156 230.4375 405.464844 228.230469 C 406.015625 226.023438 406.625 223.832031 407.285156 221.65625 C 407.945312 219.480469 408.65625 217.324219 409.421875 215.183594 C 410.1875 213.042969 411.007812 210.921875 411.878906 208.820312 C 412.746094 206.71875 413.667969 204.640625 414.640625 202.585938 C 415.613281 200.53125 416.636719 198.5 417.707031 196.496094 C 418.78125 194.488281 419.898438 192.511719 421.070312 190.5625 C 422.238281 188.609375 423.453125 186.691406 424.71875 184.800781 C 425.980469 182.910156 427.289062 181.050781 428.644531 179.222656 C 430 177.398438 431.398438 175.605469 432.839844 173.847656 C 434.285156 172.089844 435.769531 170.367188 437.296875 168.683594 C 438.824219 167 440.390625 165.351562 442 163.746094 C 443.605469 162.136719 445.253906 160.570312 446.9375 159.042969 C 448.625 157.515625 450.34375 156.03125 452.101562 154.589844 C 453.859375 153.144531 455.652344 151.746094 457.480469 150.394531 C 459.304688 149.039062 461.164062 147.730469 463.054688 146.464844 C 464.945312 145.203125 466.867188 143.988281 468.816406 142.816406 C 470.769531 141.648438 472.746094 140.527344 474.75 139.457031 C 476.757812 138.386719 478.789062 137.363281 480.84375 136.390625 C 482.898438 135.417969 484.976562 134.496094 487.078125 133.628906 C 489.179688 132.757812 491.300781 131.9375 493.441406 131.171875 C 495.582031 130.40625 497.742188 129.695312 499.917969 129.035156 C 502.09375 128.375 504.285156 127.765625 506.492188 127.214844 C 508.695312 126.664062 510.914062 126.164062 513.144531 125.722656 C 515.375 125.277344 517.617188 124.886719 519.863281 124.554688 C 522.113281 124.222656 524.371094 123.941406 526.632812 123.71875 C 528.898438 123.496094 531.164062 123.332031 533.433594 123.21875 C 535.707031 123.105469 537.980469 123.050781 540.253906 123.050781 C 542.527344 123.050781 544.800781 123.105469 547.070312 123.21875 C 549.34375 123.332031 551.609375 123.496094 553.875 123.71875 C 556.136719 123.941406 558.394531 124.222656 560.640625 124.554688 C 562.890625 124.886719 565.132812 125.277344 567.363281 125.722656 C 569.59375 126.164062 571.808594 126.664062 574.015625 127.214844 C 576.222656 127.765625 578.414062 128.375 580.589844 129.035156 C 582.765625 129.695312 584.925781 130.40625 587.066406 131.171875 C 589.207031 131.9375 591.328125 132.757812 593.429688 133.628906 C 595.53125 134.496094 597.609375 135.417969 599.664062 136.390625 C 601.71875 137.363281 603.75 138.386719 605.753906 139.457031 C 607.761719 140.527344 609.738281 141.648438 611.691406 142.816406 C 613.640625 143.988281 615.5625 145.203125 617.453125 146.464844 C 619.34375 147.730469 621.203125 149.039062 623.027344 150.394531 C 624.855469 151.746094 626.648438 153.144531 628.40625 154.589844 C 630.164062 156.03125 631.882812 157.515625 633.570312 159.042969 C 635.253906 160.570312 636.898438 162.136719 638.507812 163.746094 C 640.117188 165.351562 641.683594 167 643.210938 168.683594 C 644.738281 170.367188 646.222656 172.089844 647.664062 173.847656 C 649.109375 175.605469 650.507812 177.398438 651.863281 179.222656 C 653.214844 181.050781 654.527344 182.910156 655.789062 184.800781 C 657.050781 186.691406 658.269531 188.609375 659.4375 190.5625 C 660.605469 192.511719 661.726562 194.488281 662.800781 196.496094 C 663.871094 198.5 664.894531 200.53125 665.867188 202.585938 C 666.839844 204.640625 667.757812 206.71875 668.628906 208.820312 C 669.5 210.921875 670.316406 213.042969 671.085938 215.183594 C 671.851562 217.324219 672.5625 219.480469 673.222656 221.65625 C 673.882812 223.832031 674.488281 226.023438 675.042969 228.230469 C 675.59375 230.4375 676.09375 232.652344 676.535156 234.882812 C 676.980469 237.113281 677.371094 239.355469 677.703125 241.601562 C 678.035156 243.851562 678.316406 246.109375 678.539062 248.371094 C 678.761719 250.632812 678.929688 252.902344 679.039062 255.171875 C 679.152344 257.441406 679.207031 259.714844 679.207031 261.988281 Z M 679.207031 261.988281 " fill-opacity="1" fill-rule="nonzero"/><path fill="#000000" d="M 133.367188 298.792969 L 463.675781 94.773438 L 517.210938 213.953125 L 195.992188 427.0625 L 195.992188 416.960938 Z M 133.367188 298.792969 " fill-opacity="1" fill-rule="nonzero"/><path fill="#ffeae2" d="M 533.382812 286.679688 L 215.179688 445.230469 L 174.796875 368.359375 L 148.953125 319.167969 L 147.914062 317.207031 L 145.390625 312.402344 L 144.234375 310.148438 L 141.445312 304.867188 L 175.152344 284.898438 L 436.386719 130.117188 L 444.074219 135.28125 L 446.800781 137.117188 L 455.082031 142.667969 L 457.839844 144.507812 L 466.769531 150.527344 L 469.558594 152.398438 L 474.839844 155.957031 L 474.871094 155.957031 L 477.660156 157.828125 L 486.886719 164.027344 L 489.707031 165.898438 L 507.09375 177.585938 Z M 533.382812 286.679688 " fill-opacity="1" fill-rule="nonzero"/><path fill="#000000" d="M 446.800781 137.117188 L 146.222656 312.195312 C 145.984375 312.34375 145.746094 312.402344 145.480469 312.402344 L 145.390625 312.402344 C 144.917969 312.371094 144.441406 312.105469 144.203125 311.660156 C 143.910156 311.183594 143.9375 310.589844 144.234375 310.148438 C 144.324219 309.941406 144.5 309.761719 144.738281 309.644531 L 444.074219 135.28125 Z M 446.800781 137.117188 " fill-opacity="1" fill-rule="nonzero"/><path fill="#000000" d="M 457.839844 144.507812 L 150.019531 319.019531 C 149.785156 319.167969 149.515625 319.226562 149.28125 319.226562 C 149.160156 319.226562 149.070312 319.226562 148.953125 319.167969 C 148.566406 319.105469 148.210938 318.839844 147.976562 318.453125 C 147.769531 318.070312 147.738281 317.59375 147.914062 317.207031 C 148.003906 316.882812 148.242188 316.613281 148.539062 316.4375 L 455.082031 142.667969 Z M 457.839844 144.507812 " fill-opacity="1" fill-rule="nonzero"/><path fill="#000000" d="M 469.558594 152.398438 L 157.558594 322.816406 C 157.351562 322.933594 157.082031 322.996094 156.847656 322.996094 C 156.339844 322.996094 155.808594 322.726562 155.539062 322.222656 C 155.15625 321.511719 155.421875 320.621094 156.132812 320.207031 L 466.769531 150.527344 Z M 469.558594 152.398438 " fill-opacity="1" fill-rule="nonzero"/><path fill="#000000" d="M 477.660156 157.828125 L 165.125 325.84375 C 164.917969 325.960938 164.679688 326.019531 164.441406 326.019531 C 163.90625 326.019531 163.402344 325.753906 163.105469 325.25 C 162.722656 324.535156 163.015625 323.617188 163.730469 323.230469 L 474.839844 155.957031 L 474.871094 155.957031 Z M 477.660156 157.828125 " fill-opacity="1" fill-rule="nonzero"/><path fill="#000000" d="M 489.707031 165.898438 L 168.894531 329.667969 C 168.6875 329.757812 168.449219 329.816406 168.210938 329.816406 C 167.675781 329.816406 167.140625 329.523438 166.90625 329.015625 C 166.519531 328.273438 166.816406 327.386719 167.527344 327 L 486.886719 164.027344 Z M 489.707031 165.898438 " fill-opacity="1" fill-rule="nonzero"/><path fill="#ffb46a" d="M 204.734375 333.171875 C 202.480469 349.28125 190.226562 363.492188 174.796875 368.359375 L 141.445312 304.867188 L 175.152344 284.898438 C 181.117188 287.066406 186.519531 290.238281 190.523438 294.066406 C 200.9375 303.945312 206.753906 318.871094 204.734375 333.171875 Z M 204.734375 333.171875 " fill-opacity="1" fill-rule="nonzero"/><path fill="#7082ff" d="M 670.734375 599.773438 L 343.988281 717.679688 L 295 703.792969 L 272.953125 648.519531 L 275.921875 633.390625 L 258.828125 613.15625 L 178.507812 411.855469 L 178.792969 386.757812 L 158.210938 361 L 133.375 298.785156 L 185.894531 321.007812 L 536.410156 157.886719 Z M 670.734375 599.773438 " fill-opacity="1" fill-rule="nonzero"/><path fill="#fea8fe" d="M 227.257812 424.609375 L 178.507812 411.855469 L 158.210938 361 L 206.070312 371.503906 Z M 227.257812 424.609375 " fill-opacity="1" fill-rule="nonzero"/><path fill="#fea8fe" d="M 318.707031 653.625 L 272.953125 648.519531 L 258.828125 613.15625 L 303.960938 616.65625 Z M 318.707031 653.625 " fill-opacity="1" fill-rule="nonzero"/><path fill="#000000" d="M 343.988281 718.417969 C 343.398438 718.417969 342.84375 718.066406 342.609375 717.484375 L 184.515625 321.558594 C 184.210938 320.796875 184.582031 319.933594 185.34375 319.632812 C 186.105469 319.332031 186.964844 319.699219 187.273438 320.457031 L 345.367188 716.386719 C 345.667969 717.148438 345.300781 718.011719 344.539062 718.3125 C 344.359375 718.382812 344.171875 718.417969 343.988281 718.417969 Z M 343.988281 718.417969 " fill-opacity="1" fill-rule="nonzero"/><path fill="#000000" d="M 468.230469 611.679688 C 446.757812 611.679688 429.933594 566.417969 429.933594 508.636719 C 429.933594 450.855469 446.757812 405.589844 468.230469 405.589844 C 489.710938 405.589844 506.53125 450.855469 506.53125 508.636719 C 506.53125 566.417969 489.710938 611.679688 468.230469 611.679688 Z M 468.230469 408.503906 C 448.722656 408.503906 432.847656 453.421875 432.847656 508.636719 C 432.847656 563.847656 448.722656 608.765625 468.230469 608.765625 C 487.742188 608.765625 503.617188 563.847656 503.617188 508.636719 C 503.617188 453.421875 487.746094 408.503906 468.230469 408.503906 Z M 468.230469 408.503906 " fill-opacity="1" fill-rule="nonzero"/><path fill="#000000" d="M 409.570312 586.519531 C 403.535156 586.519531 398.71875 584.847656 395.363281 581.496094 C 387.9375 574.074219 388.765625 559.476562 397.691406 540.386719 C 406.410156 521.753906 421.84375 500.855469 441.152344 481.554688 C 482.007812 440.695312 525.914062 420.589844 541.101562 435.769531 C 556.289062 450.957031 536.175781 494.859375 495.3125 535.714844 C 476.007812 555.019531 455.109375 570.449219 436.472656 579.167969 C 426.007812 584.0625 416.894531 586.519531 409.570312 586.519531 Z M 526.707031 433.535156 C 507.265625 433.535156 474.011719 452.816406 443.210938 483.617188 C 424.140625 502.6875 408.910156 523.289062 400.335938 541.628906 C 392.085938 559.257812 391.023438 573.039062 397.425781 579.4375 C 403.824219 585.835938 417.605469 584.773438 435.238281 576.527344 C 453.578125 567.949219 474.183594 552.726562 493.257812 533.652344 C 532.300781 494.613281 552.839844 451.632812 539.042969 437.835938 C 536.128906 434.917969 531.910156 433.535156 526.707031 433.535156 Z M 526.707031 433.535156 " fill-opacity="1" fill-rule="nonzero"/><path fill="#000000" d="M 532.714844 573.722656 C 511.699219 573.722656 479.777344 561.933594 447.277344 540.691406 C 398.90625 509.078125 370.21875 470.234375 381.96875 452.261719 C 387.714844 443.46875 402.175781 441.289062 422.683594 446.113281 C 442.714844 450.820312 466.332031 461.644531 489.1875 476.582031 C 512.042969 491.515625 531.433594 508.800781 543.785156 525.253906 C 556.433594 542.105469 560.238281 556.222656 554.496094 565.011719 C 550.640625 570.90625 542.976562 573.722656 532.714844 573.722656 Z M 448.871094 538.253906 C 495.089844 568.457031 541.378906 579.742188 552.058594 563.414062 C 557.007812 555.839844 553.144531 542.570312 541.457031 527.003906 C 529.300781 510.816406 510.171875 493.773438 487.59375 479.019531 C 465.015625 464.261719 441.730469 453.582031 422.019531 448.945312 C 403.066406 444.488281 389.363281 446.277344 384.410156 453.851562 C 373.734375 470.179688 402.652344 508.042969 448.871094 538.253906 Z M 448.871094 538.253906 " fill-opacity="1" fill-rule="nonzero"/><path fill="#000000" d="M 482.746094 509.378906 C 482.746094 510.28125 482.660156 511.175781 482.480469 512.0625 C 482.304688 512.949219 482.042969 513.8125 481.699219 514.648438 C 481.351562 515.480469 480.929688 516.277344 480.425781 517.027344 C 479.925781 517.777344 479.351562 518.472656 478.714844 519.113281 C 478.074219 519.753906 477.378906 520.324219 476.628906 520.824219 C 475.875 521.328125 475.082031 521.753906 474.246094 522.097656 C 473.410156 522.445312 472.550781 522.707031 471.664062 522.882812 C 470.777344 523.058594 469.882812 523.144531 468.976562 523.144531 C 468.074219 523.144531 467.175781 523.058594 466.289062 522.882812 C 465.402344 522.707031 464.542969 522.445312 463.707031 522.097656 C 462.871094 521.753906 462.078125 521.328125 461.328125 520.824219 C 460.574219 520.324219 459.878906 519.753906 459.242188 519.113281 C 458.601562 518.472656 458.03125 517.777344 457.527344 517.027344 C 457.027344 516.277344 456.601562 515.480469 456.253906 514.648438 C 455.910156 513.8125 455.648438 512.949219 455.472656 512.0625 C 455.296875 511.175781 455.207031 510.28125 455.207031 509.378906 C 455.207031 508.472656 455.296875 507.578125 455.472656 506.691406 C 455.648438 505.804688 455.910156 504.945312 456.253906 504.109375 C 456.601562 503.273438 457.027344 502.480469 457.527344 501.730469 C 458.03125 500.976562 458.601562 500.28125 459.242188 499.640625 C 459.878906 499.003906 460.574219 498.433594 461.328125 497.929688 C 462.078125 497.429688 462.871094 497.003906 463.707031 496.65625 C 464.542969 496.3125 465.402344 496.050781 466.289062 495.875 C 467.175781 495.699219 468.074219 495.609375 468.976562 495.609375 C 469.882812 495.609375 470.777344 495.699219 471.664062 495.875 C 472.550781 496.050781 473.410156 496.3125 474.246094 496.65625 C 475.082031 497.003906 475.875 497.429688 476.628906 497.929688 C 477.378906 498.433594 478.074219 499.003906 478.714844 499.640625 C 479.351562 500.28125 479.925781 500.976562 480.425781 501.730469 C 480.929688 502.480469 481.351562 503.273438 481.699219 504.109375 C 482.042969 504.945312 482.304688 505.804688 482.480469 506.691406 C 482.660156 507.578125 482.746094 508.472656 482.746094 509.378906 Z M 482.746094 509.378906 " fill-opacity="1" fill-rule="nonzero"/><path fill="#000000" d="M 550.726562 439.046875 C 550.726562 444.253906 546.503906 448.476562 541.300781 448.476562 C 536.089844 448.476562 531.871094 444.253906 531.871094 439.046875 C 531.871094 433.839844 536.089844 429.621094 541.300781 429.621094 C 546.503906 429.621094 550.726562 433.84375 550.726562 439.046875 Z M 550.726562 439.046875 " fill-opacity="1" fill-rule="nonzero"/><path fill="#000000" d="M 405.339844 580.949219 C 405.339844 586.152344 401.117188 590.375 395.910156 590.375 C 390.703125 590.375 386.484375 586.152344 386.484375 580.949219 C 386.484375 575.742188 390.703125 571.519531 395.910156 571.519531 C 401.117188 571.519531 405.339844 575.742188 405.339844 580.949219 Z M 405.339844 580.949219 " fill-opacity="1" fill-rule="nonzero"/><path fill="#ffeae2" d="M 240.1875 357.121094 L 274.277344 429.839844 L 546.25 307.882812 L 517.464844 226.070312 Z M 240.1875 357.121094 " fill-opacity="1" fill-rule="nonzero"/><path fill="#000000" d="M 290.714844 397.1875 C 289.191406 396.449219 288.246094 395.683594 287.878906 394.902344 C 287.359375 393.777344 287.535156 392.0625 288.414062 389.75 C 288.929688 388.421875 289.652344 387.539062 290.585938 387.101562 C 291.742188 386.5625 293.554688 386.746094 296.015625 387.644531 L 296.425781 387.792969 C 296.664062 387.910156 296.996094 388.050781 297.4375 388.207031 C 297.875 388.371094 298.640625 388.5 299.734375 388.605469 C 300.824219 388.710938 301.785156 388.570312 302.605469 388.1875 C 306.078125 386.574219 307.152344 384.347656 305.835938 381.511719 C 305.4375 380.652344 304.625 380.15625 303.402344 380.019531 C 302.179688 379.882812 300.800781 380.015625 299.257812 380.414062 C 297.722656 380.8125 295.992188 381.101562 294.082031 381.289062 C 292.167969 381.472656 290.320312 381.507812 288.542969 381.378906 C 286.757812 381.253906 284.996094 380.566406 283.25 379.3125 C 281.507812 378.054688 280.082031 376.230469 278.96875 373.839844 C 277.441406 370.558594 277.332031 367.125 278.640625 363.542969 C 279.949219 359.957031 282.710938 357.1875 286.929688 355.226562 C 289.171875 354.183594 291.347656 353.523438 293.46875 353.238281 C 295.582031 352.960938 297.136719 352.953125 298.125 353.21875 L 299.632812 353.539062 L 300.015625 353.632812 C 301.679688 354.175781 302.675781 354.800781 303.007812 355.511719 C 303.371094 356.292969 303.40625 357.546875 303.121094 359.273438 C 302.71875 361.730469 301.847656 363.269531 300.5 363.894531 C 299.71875 364.257812 298.574219 364.339844 297.070312 364.128906 C 296.921875 364.109375 296.621094 364.019531 296.164062 363.871094 C 295.707031 363.71875 295.3125 363.621094 294.972656 363.570312 C 294.628906 363.527344 294.113281 363.5625 293.421875 363.683594 C 292.726562 363.804688 291.96875 364.054688 291.148438 364.4375 C 290.253906 364.851562 289.539062 365.535156 289.003906 366.488281 C 288.46875 367.4375 288.421875 368.382812 288.855469 369.3125 C 289.378906 370.4375 290.257812 371.089844 291.507812 371.28125 C 292.757812 371.472656 294.136719 371.351562 295.660156 370.914062 C 297.183594 370.480469 298.894531 370.105469 300.792969 369.789062 C 302.691406 369.476562 304.503906 369.324219 306.238281 369.335938 C 307.96875 369.347656 309.695312 369.964844 311.421875 371.179688 C 313.144531 372.398438 314.582031 374.242188 315.726562 376.707031 C 316.835938 379.09375 317.339844 381.441406 317.230469 383.738281 C 317.117188 386.035156 316.523438 388.054688 315.441406 389.777344 C 314.359375 391.507812 313.113281 393 311.695312 394.246094 C 310.277344 395.496094 308.746094 396.503906 307.105469 397.269531 C 305.351562 398.085938 303.589844 398.636719 301.824219 398.941406 C 300.054688 399.246094 298.53125 399.3125 297.257812 399.160156 C 295.984375 399.003906 294.832031 398.777344 293.808594 398.480469 C 292.785156 398.183594 292.015625 397.886719 291.515625 397.574219 Z M 290.714844 397.1875 " fill-opacity="1" fill-rule="nonzero"/><path fill="#000000" d="M 346.519531 364.5625 L 346.75 364.179688 C 347.671875 362.84375 348.394531 362.058594 348.917969 361.8125 C 350.074219 361.273438 351.8125 361.738281 354.128906 363.203125 C 355.558594 364.128906 356.464844 365 356.847656 365.824219 C 357.191406 366.570312 357.234375 367.320312 356.976562 368.078125 C 356.71875 368.835938 356.222656 369.746094 355.488281 370.8125 C 355.257812 371.191406 354.921875 371.710938 354.476562 372.371094 C 354.039062 373.03125 353.003906 374.105469 351.375 375.582031 C 349.75 377.066406 347.984375 378.25 346.082031 379.140625 C 344.4375 379.902344 342.601562 380.472656 340.574219 380.847656 C 338.542969 381.222656 336.316406 381.308594 333.882812 381.101562 C 331.445312 380.890625 329.089844 380.355469 326.828125 379.476562 C 324.554688 378.601562 322.351562 377.15625 320.203125 375.132812 C 318.058594 373.109375 316.300781 370.625 314.929688 367.675781 C 313.597656 364.800781 312.859375 361.953125 312.726562 359.128906 C 312.597656 356.3125 312.925781 353.769531 313.71875 351.519531 C 314.507812 349.265625 315.625 347.15625 317.074219 345.1875 C 318.519531 343.222656 320.058594 341.574219 321.691406 340.25 C 323.320312 338.921875 324.996094 337.859375 326.710938 337.058594 C 328.46875 336.242188 330.375 335.6875 332.4375 335.386719 C 334.5 335.085938 336.128906 334.996094 337.324219 335.121094 L 339.03125 335.285156 C 339.894531 335.378906 340.566406 335.488281 341.054688 335.601562 C 341.542969 335.71875 342.050781 335.941406 342.597656 336.28125 C 343.140625 336.617188 343.542969 337.066406 343.800781 337.625 C 344.238281 338.558594 344.3125 339.746094 344.03125 341.195312 C 343.515625 343.886719 342.675781 345.507812 341.519531 346.046875 C 340.847656 346.359375 339.703125 346.386719 338.089844 346.140625 C 335.933594 345.601562 333.542969 345.9375 330.929688 347.152344 C 329.769531 347.691406 328.679688 348.464844 327.644531 349.460938 C 326.613281 350.46875 325.71875 351.644531 324.960938 352.992188 C 324.203125 354.34375 323.800781 355.941406 323.75 357.78125 C 323.695312 359.621094 324.105469 361.472656 324.972656 363.339844 C 325.859375 365.246094 327.023438 366.769531 328.464844 367.914062 C 329.90625 369.0625 331.398438 369.789062 332.945312 370.089844 C 334.496094 370.390625 335.980469 370.460938 337.402344 370.292969 C 338.828125 370.136719 340.101562 369.792969 341.222656 369.273438 C 342.378906 368.734375 343.402344 368.078125 344.289062 367.296875 C 345.175781 366.523438 345.773438 365.882812 346.085938 365.375 Z M 346.519531 364.5625 " fill-opacity="1" fill-rule="nonzero"/><path fill="#000000" d="M 346.65625 334.257812 C 346.257812 333.398438 345.988281 332.742188 345.84375 332.285156 C 345.699219 331.832031 345.644531 331.25 345.683594 330.554688 C 345.722656 329.855469 346.042969 329.230469 346.648438 328.675781 C 347.253906 328.121094 348.15625 327.566406 349.351562 327.011719 C 350.320312 326.5625 351.164062 326.28125 351.886719 326.171875 C 352.605469 326.058594 353.199219 326.058594 353.65625 326.164062 C 354.113281 326.269531 354.542969 326.535156 354.945312 326.960938 C 355.347656 327.386719 355.640625 327.773438 355.824219 328.121094 C 356.007812 328.464844 356.265625 328.992188 356.59375 329.703125 L 371.078125 360.835938 C 371.492188 361.734375 371.773438 362.398438 371.90625 362.835938 C 372.039062 363.273438 372.089844 363.839844 372.050781 364.539062 C 372.011719 365.238281 371.691406 365.863281 371.085938 366.417969 C 370.480469 366.972656 369.582031 367.527344 368.386719 368.082031 C 367.414062 368.53125 366.570312 368.816406 365.851562 368.921875 C 365.125 369.03125 364.539062 369.035156 364.078125 368.929688 C 363.621094 368.828125 363.195312 368.558594 362.789062 368.132812 C 362.386719 367.707031 362.09375 367.324219 361.910156 366.976562 C 361.726562 366.628906 361.46875 366.101562 361.136719 365.390625 Z M 346.65625 334.257812 " fill-opacity="1" fill-rule="nonzero"/><path fill="#000000" d="M 383.15625 349.160156 L 400.402344 341.136719 C 401.261719 340.734375 401.917969 340.464844 402.371094 340.320312 C 402.828125 340.175781 403.40625 340.128906 404.105469 340.164062 C 404.808594 340.203125 405.433594 340.523438 405.984375 341.128906 C 406.539062 341.734375 407.097656 342.636719 407.648438 343.828125 C 408.101562 344.800781 408.382812 345.644531 408.488281 346.367188 C 408.59375 347.089844 408.597656 347.675781 408.496094 348.136719 C 408.390625 348.59375 408.125 349.023438 407.699219 349.425781 C 407.273438 349.828125 406.886719 350.121094 406.539062 350.304688 C 406.195312 350.492188 405.664062 350.742188 404.957031 351.074219 L 382.777344 361.390625 C 381.808594 361.839844 380.964844 362.125 380.242188 362.230469 C 379.519531 362.339844 378.929688 362.339844 378.472656 362.234375 C 378.015625 362.132812 377.585938 361.867188 377.183594 361.441406 C 376.78125 361.015625 376.492188 360.632812 376.304688 360.285156 C 376.121094 359.9375 375.863281 359.410156 375.535156 358.699219 L 361.050781 327.5625 C 360.164062 325.664062 359.917969 324.199219 360.304688 323.175781 C 360.695312 322.160156 361.875 321.1875 363.859375 320.269531 L 385.921875 310.007812 C 386.78125 309.605469 387.4375 309.335938 387.890625 309.191406 C 388.34375 309.046875 388.925781 308.996094 389.625 309.03125 C 390.320312 309.070312 390.953125 309.394531 391.503906 309.996094 C 392.058594 310.601562 392.609375 311.5 393.167969 312.699219 C 393.621094 313.667969 393.902344 314.515625 394.007812 315.234375 C 394.113281 315.957031 394.117188 316.546875 394.011719 317.003906 C 393.90625 317.460938 393.640625 317.890625 393.214844 318.292969 C 392.789062 318.695312 392.40625 318.988281 392.058594 319.171875 C 391.710938 319.355469 391.183594 319.609375 390.472656 319.941406 L 373.277344 327.9375 L 375.910156 333.589844 L 387 328.433594 C 387.855469 328.035156 388.515625 327.765625 388.96875 327.621094 C 389.425781 327.476562 390.003906 327.425781 390.703125 327.464844 C 391.402344 327.503906 392.03125 327.824219 392.582031 328.429688 C 393.132812 329.03125 393.691406 329.933594 394.246094 331.125 C 394.699219 332.097656 394.976562 332.945312 395.085938 333.667969 C 395.199219 334.386719 395.199219 334.976562 395.09375 335.433594 C 394.988281 335.890625 394.710938 336.328125 394.269531 336.734375 C 393.824219 337.148438 393.429688 337.445312 393.082031 337.628906 C 392.734375 337.816406 392.207031 338.066406 391.5 338.398438 L 380.523438 343.503906 Z M 383.15625 349.160156 " fill-opacity="1" fill-rule="nonzero"/><path fill="#000000" d="M 425.484375 291.671875 C 426.414062 291.238281 427.253906 290.964844 427.992188 290.84375 C 428.730469 290.726562 429.324219 290.726562 429.761719 290.839844 C 430.203125 290.953125 430.621094 291.21875 431.023438 291.648438 C 431.425781 292.074219 431.71875 292.460938 431.90625 292.808594 C 432.089844 293.152344 432.347656 293.679688 432.671875 294.390625 L 447.128906 325.46875 C 447.546875 326.367188 447.824219 327.03125 447.960938 327.46875 C 448.097656 327.90625 448.144531 328.46875 448.105469 329.167969 C 448.070312 329.871094 447.746094 330.496094 447.136719 331.046875 C 446.535156 331.601562 445.632812 332.160156 444.441406 332.714844 C 442.984375 333.390625 441.925781 333.746094 441.257812 333.785156 C 440.589844 333.820312 439.964844 333.683594 439.363281 333.371094 C 425.753906 326.078125 416.824219 321.332031 412.570312 319.128906 L 421.144531 337.550781 C 421.558594 338.449219 421.839844 339.113281 421.972656 339.550781 C 422.105469 339.988281 422.15625 340.558594 422.117188 341.253906 C 422.082031 341.957031 421.757812 342.582031 421.152344 343.132812 C 420.546875 343.6875 419.648438 344.242188 418.453125 344.796875 C 417.296875 345.335938 416.320312 345.652344 415.523438 345.75 C 414.726562 345.847656 414.050781 345.6875 413.496094 345.265625 C 412.933594 344.84375 412.523438 344.421875 412.261719 344 C 411.992188 343.578125 411.664062 342.941406 411.265625 342.082031 L 396.730469 310.835938 C 396.332031 309.976562 396.070312 309.328125 395.957031 308.878906 C 395.839844 308.433594 395.796875 307.886719 395.835938 307.226562 C 395.875 306.578125 396.195312 305.972656 396.800781 305.421875 C 397.40625 304.867188 398.304688 304.3125 399.5 303.757812 C 400.542969 303.269531 401.441406 302.976562 402.1875 302.878906 C 402.9375 302.78125 403.5 302.792969 403.875 302.910156 C 404.246094 303.035156 404.765625 303.261719 405.414062 303.589844 L 405.851562 303.796875 C 418.71875 310.847656 427.269531 315.472656 431.519531 317.675781 L 422.714844 298.75 C 422.316406 297.890625 422.058594 297.242188 421.9375 296.796875 C 421.824219 296.347656 421.78125 295.800781 421.824219 295.144531 C 421.859375 294.492188 422.179688 293.890625 422.785156 293.335938 C 423.390625 292.78125 424.289062 292.230469 425.484375 291.671875 Z M 425.484375 291.671875 " fill-opacity="1" fill-rule="nonzero"/><path fill="#000000" d="M 474.992188 304.816406 L 475.21875 304.433594 C 476.144531 303.101562 476.867188 302.308594 477.386719 302.066406 C 478.546875 301.527344 480.28125 301.988281 482.601562 303.457031 C 484.027344 304.382812 484.933594 305.253906 485.316406 306.074219 C 485.664062 306.824219 485.707031 307.574219 485.445312 308.328125 C 485.1875 309.089844 484.6875 310 483.960938 311.066406 C 483.726562 311.445312 483.390625 311.964844 482.949219 312.621094 C 482.507812 313.285156 481.472656 314.359375 479.84375 315.835938 C 478.21875 317.320312 476.453125 318.503906 474.550781 319.390625 C 472.910156 320.15625 471.074219 320.722656 469.042969 321.101562 C 467.015625 321.476562 464.78125 321.5625 462.351562 321.355469 C 459.914062 321.148438 457.5625 320.609375 455.296875 319.730469 C 453.027344 318.855469 450.820312 317.410156 448.675781 315.386719 C 446.53125 313.363281 444.773438 310.878906 443.402344 307.929688 C 442.066406 305.054688 441.332031 302.207031 441.199219 299.386719 C 441.066406 296.566406 441.394531 294.023438 442.1875 291.773438 C 442.976562 289.519531 444.097656 287.410156 445.546875 285.441406 C 446.992188 283.476562 448.53125 281.828125 450.160156 280.503906 C 451.792969 279.175781 453.464844 278.113281 455.183594 277.3125 C 456.9375 276.496094 458.84375 275.945312 460.90625 275.640625 C 462.972656 275.339844 464.601562 275.25 465.792969 275.375 L 467.503906 275.539062 C 468.367188 275.632812 469.039062 275.742188 469.527344 275.855469 C 470.011719 275.972656 470.523438 276.195312 471.066406 276.535156 C 471.609375 276.871094 472.011719 277.320312 472.273438 277.882812 C 472.710938 278.8125 472.785156 280.003906 472.503906 281.449219 C 471.984375 284.140625 471.148438 285.761719 469.992188 286.300781 C 469.320312 286.613281 468.175781 286.644531 466.5625 286.394531 C 464.40625 285.855469 462.019531 286.195312 459.402344 287.40625 C 458.242188 287.949219 457.152344 288.71875 456.117188 289.71875 C 455.082031 290.722656 454.191406 291.902344 453.433594 293.246094 C 452.675781 294.601562 452.273438 296.199219 452.222656 298.035156 C 452.167969 299.878906 452.578125 301.730469 453.445312 303.597656 C 454.332031 305.503906 455.496094 307.027344 456.9375 308.171875 C 458.375 309.320312 459.871094 310.046875 461.417969 310.34375 C 462.964844 310.644531 464.453125 310.714844 465.875 310.550781 C 467.300781 310.394531 468.574219 310.050781 469.695312 309.527344 C 470.847656 308.992188 471.871094 308.335938 472.757812 307.554688 C 473.648438 306.78125 474.242188 306.140625 474.554688 305.632812 Z M 474.992188 304.816406 " fill-opacity="1" fill-rule="nonzero"/><path fill="#000000" d="M 497.230469 296.101562 L 514.480469 288.082031 C 515.34375 287.683594 515.996094 287.410156 516.449219 287.265625 C 516.90625 287.121094 517.484375 287.070312 518.183594 287.109375 C 518.882812 287.148438 519.507812 287.46875 520.0625 288.070312 C 520.621094 288.675781 521.171875 289.578125 521.730469 290.769531 C 522.179688 291.742188 522.457031 292.585938 522.570312 293.3125 C 522.675781 294.035156 522.679688 294.621094 522.574219 295.078125 C 522.46875 295.535156 522.203125 295.96875 521.777344 296.371094 C 521.351562 296.769531 520.964844 297.0625 520.621094 297.246094 C 520.273438 297.433594 519.742188 297.6875 519.035156 298.019531 L 496.859375 308.332031 C 495.886719 308.785156 495.042969 309.066406 494.320312 309.171875 C 493.597656 309.28125 493.007812 309.285156 492.550781 309.183594 C 492.089844 309.078125 491.664062 308.8125 491.261719 308.386719 C 490.859375 307.960938 490.566406 307.574219 490.378906 307.226562 C 490.199219 306.882812 489.941406 306.355469 489.609375 305.644531 L 475.128906 274.507812 C 474.242188 272.609375 473.996094 271.144531 474.378906 270.121094 C 474.769531 269.101562 475.957031 268.132812 477.933594 267.210938 L 500 256.949219 C 500.859375 256.550781 501.515625 256.273438 501.96875 256.132812 C 502.425781 255.988281 503.003906 255.933594 503.699219 255.972656 C 504.398438 256.011719 505.027344 256.335938 505.578125 256.9375 C 506.136719 257.542969 506.6875 258.441406 507.246094 259.636719 C 507.699219 260.609375 507.976562 261.453125 508.082031 262.175781 C 508.1875 262.898438 508.195312 263.488281 508.085938 263.941406 C 507.984375 264.402344 507.71875 264.832031 507.292969 265.234375 C 506.863281 265.632812 506.480469 265.929688 506.136719 266.113281 C 505.785156 266.296875 505.257812 266.554688 504.550781 266.882812 L 487.359375 274.878906 L 489.988281 280.535156 L 501.078125 275.375 C 501.933594 274.980469 502.59375 274.707031 503.046875 274.5625 C 503.503906 274.421875 504.078125 274.367188 504.78125 274.40625 C 505.480469 274.449219 506.109375 274.769531 506.660156 275.371094 C 507.210938 275.972656 507.769531 276.878906 508.324219 278.070312 C 508.773438 279.042969 509.054688 279.886719 509.160156 280.609375 C 509.273438 281.332031 509.273438 281.917969 509.167969 282.378906 C 509.0625 282.835938 508.789062 283.269531 508.34375 283.679688 C 507.898438 284.09375 507.507812 284.390625 507.160156 284.574219 C 506.8125 284.757812 506.285156 285.015625 505.574219 285.339844 L 494.597656 290.445312 Z M 497.230469 296.101562 " fill-opacity="1" fill-rule="nonzero"/><path fill="#ffb46a" d="M 217.957031 205.027344 C 210.96875 196.464844 207.46875 185.605469 204.683594 174.882812 C 204.671875 174.785156 204.660156 174.6875 204.648438 174.582031 C 204.644531 174.617188 204.636719 174.652344 204.628906 174.6875 C 204.621094 174.644531 204.605469 174.601562 204.597656 174.558594 C 204.59375 174.691406 204.589844 174.8125 204.589844 174.933594 C 202.828125 185.867188 200.367188 196.996094 194.226562 206.175781 C 187.984375 215.488281 176.777344 221.957031 165.734375 223.652344 C 187.984375 228.882812 206.234375 245.800781 209.078125 268.476562 C 209.117188 268.496094 209.117188 268.464844 209.140625 268.433594 C 209.828125 245.59375 226.3125 227.042969 247.972656 219.738281 C 236.816406 219.089844 225.046875 213.707031 217.957031 205.027344 Z M 217.957031 205.027344 " fill-opacity="1" fill-rule="nonzero"/><path fill="#ffb46a" d="M 624.78125 417.125 C 617.792969 408.5625 614.292969 397.707031 611.507812 386.984375 C 611.496094 386.886719 611.484375 386.789062 611.472656 386.679688 C 611.46875 386.714844 611.460938 386.753906 611.453125 386.789062 C 611.445312 386.746094 611.429688 386.703125 611.421875 386.660156 C 611.417969 386.789062 611.414062 386.910156 611.414062 387.035156 C 609.652344 397.964844 607.191406 409.09375 601.050781 418.273438 C 594.808594 427.585938 583.601562 434.054688 572.558594 435.753906 C 594.808594 440.980469 613.058594 457.898438 615.902344 480.574219 C 615.941406 480.59375 615.941406 480.5625 615.964844 480.53125 C 616.652344 457.691406 633.136719 439.144531 654.796875 431.839844 C 643.640625 431.191406 631.871094 425.808594 624.78125 417.125 Z M 624.78125 417.125 " fill-opacity="1" fill-rule="nonzero"/><path fill="#ffb46a" d="M 236.140625 530.753906 C 229.152344 522.191406 225.652344 511.332031 222.867188 500.609375 C 222.855469 500.511719 222.84375 500.414062 222.832031 500.308594 C 222.824219 500.339844 222.816406 500.378906 222.8125 500.414062 C 222.800781 500.371094 222.789062 500.328125 222.777344 500.285156 C 222.777344 500.414062 222.773438 500.535156 222.769531 500.660156 C 221.007812 511.589844 218.546875 522.71875 212.40625 531.898438 C 206.167969 541.207031 194.957031 547.679688 183.914062 549.378906 C 206.167969 554.605469 224.417969 571.523438 227.257812 594.199219 C 227.296875 594.21875 227.296875 594.191406 227.320312 594.15625 C 228.011719 571.316406 244.496094 552.769531 266.152344 545.464844 C 255 544.816406 243.230469 539.433594 236.140625 530.753906 Z M 236.140625 530.753906 " fill-opacity="1" fill-rule="nonzero"/></svg>